# AST/ASF file generated using VICON BodyLanguage
# -----------------------------------------------
:version 1.10
:name VICON
:units
  mass 1.0
  length 0.45
  angle deg
:documentation
   .ast/.asf automatically generated from VICON data using
   VICON BodyBuilder and BodyLanguage model FoxedUp or BRILLIANT.MOD
:root
   order TX TY TZ RX RY RZ
   axis XYZ
   position 0 0 0  
   orientation 0 0 0 
:bonedata
  begin
     id 1 
     name lhipjoint
     direction 0.734343 -0.627749 0.258209 
     length 2.5437 
     axis 0 0 0  XYZ
  end
  begin
     id 2 
     name lfemur
     direction 0.34202 -0.939693 0  
     length 6.7391  
     axis 0 0 20  XYZ
    dof rx ry rz
    limits (-160.0 20.0)
           (-70.0 70.0)
           (-60.0 70.0)
  end
  begin
     id 3 
     name ltibia
     direction 0.34202 -0.939693 0   
     length 7.21536   
     axis 0 0 20   XYZ
    dof rx
    limits (-10.0 170.0)
  end
  begin
     id 4 
     name lfoot
     direction 0.0489572 -0.134509 0.989702   
     length 1.61313   
     axis -90 7.62852e-016 20   XYZ
    dof rx rz
    limits (-45.0 90.0)
           (-70.0 20.0)
  end
  begin
     id 5 
     name ltoes
     direction 1.53451e-011 -4.21692e-011 1   
     length 0.823104   
     axis -90 7.62852e-016 20   XYZ
    dof rx
    limits (-90.0 20.0)
  end
  begin
     id 6 
     name rhipjoint
     direction -0.746398 -0.615468 0.253157   
     length 2.59446  
     axis 0 0 0  XYZ 
  end
  begin
     id 7 
     name rfemur
     direction -0.34202 -0.939693 0   
     length 6.7075   
     axis 0 0 -20   XYZ
    dof rx ry rz
    limits (-160.0 20.0)
           (-70.0 70.0)
           (-70.0 60.0)
  end
  begin
     id 8 
     name rtibia
     direction -0.34202 -0.939693 0   
     length 7.27262   
     axis 0 0 -20   XYZ
    dof rx
    limits (-10.0 170.0)
 end
 begin
     id 9 
     name rfoot
     direction -0.0455203 -0.125066 0.991104   
     length 1.91095  
     axis -90 -7.62852e-016 -20   XYZ
    dof rx rz
    limits (-45.0 90.0)
           (-20.0 70.0)
  end
  begin
     id 10 
     name rtoes
     direction -1.53601e-011 -4.21913e-011 1   
     length 0.969037   
     axis -90 -7.62852e-016 -20   XYZ
    dof rx
    limits (-90.0 20.0)
  end
  begin
     id 11 
     name lowerback
     direction 0.0181546 0.999122 -0.0377542   
     length 1.99916   
     axis 0 0 0   XYZ
    dof rx ry rz
    limits (-20.0 45.0)
           (-30.0 30.0)
           (-30.0 30.0)
  end
  begin
     id 12 
     name upperback
     direction 0.0203486 0.99589 0.0882534   
     length 1.951   
     axis 0 0 0   XYZ
    dof rx ry rz
    limits (-20.0 45.0)
           (-30.0 30.0)
           (-30.0 30.0)
  end
  begin
     id 13 
     name thorax
     direction 0.0131685 0.994241 0.106355   
     length 1.97461   
     axis 0 0 0   XYZ
    dof rx ry rz
    limits (-20.0 45.0)
           (-30.0 30.0)
           (-30.0 30.0)
  end
  begin
     id 14 
     name lowerneck
     direction -0.0281395 0.999325 0.023617   
     length 1.7959   
     axis 0 0 0   XYZ
    dof rx ry rz
    limits (-20.0 45.0)
           (-30.0 30.0)
           (-30.0 30.0)
  end
  begin
     id 15 
     name upperneck
     direction 0.0288721 0.991984 -0.123019   
     length 1.79917   
     axis 0 0 0   XYZ
    dof rx ry rz
    limits (-20.0 45.0)
           (-30.0 30.0)
           (-30.0 30.0)
  end
  begin
     id 16
     name head
     direction 0.0133797 0.998944 -0.0439492  
     length 1.80902  
     axis 0 0 0   XYZ
    dof rx ry rz
    limits (-20.0 45.0)
           (-30.0 30.0)
           (-30.0 30.0)
  end
  begin
     id 17 
     name lclavicle
     direction 0.919195 0.377107 0.113449  
     length 3.17815  
     axis 0 0 0   XYZ
    dof ry rz
    limits (-20.0 10.0)
           (0.0 20.0)
  end
  begin
     id 18 
     name lhumerus
     direction 1 -4.48959e-011 2.13129e-027   
     length 4.84137   
     axis 180 -30 -90   XYZ
    dof rx ry rz
    limits (-60.0 90.0)
           (-90.0 90.0)
           (-90.0 90.0)
  end
  begin
     id 19
     name lradius
     direction 1 -4.48957e-011 -6.30627e-028   
     length 3.2452   
     axis 180 -30 -90   XYZ
    dof rx
    limits (-10.0 170.0)
  end
  begin
     id 20
     name lwrist
     direction 1 -4.4901e-011 9.13299e-027   
     length 1.6226   
     axis -6.84618e-015 90 90   XYZ
    dof ry
    limits (-180.0 0.0)
 end
  begin
     id 21 
     name lhand
     direction 1 -4.48816e-011 1.82293e-026   
     length 0.521221   
     axis -1.16502e-014 90 90   XYZ
    dof rx rz
    limits (-90.0 90.0)
           (-45.0 45.0)
  end
  begin
     id 22 
     name lfingers
     direction 1 -4.49108e-011 3.65687e-026   
     length 0.420221   
     axis -2.33008e-014 90 90   XYZ
    dof rx
    limits (0.0 90.0)
  end
  begin
     id 23
     name lthumb
     direction 0.707107 -6.34943e-011 0.707107   
     length 0.603356   
     axis -90 45 5.69224e-014   XYZ
    dof rx rz
    limits (-45.0 45.0)
           (-45.0 45.0)
  end
  begin
     id 24 
     name rclavicle
     direction -0.90847 0.38596 0.160368   
     length 3.12973  
     axis 0 0 0   XYZ 
    dof ry rz
    limits (-10.0 20.0)
           (-20.0 0.0)
  end
  begin
     id 25 
     name rhumerus
     direction -1 -4.48974e-011 4.47268e-028  
     length 4.72284   
     axis 180 30 90   XYZ
    dof rx ry rz
    limits (-90.0 60.0)
           (-90.0 90.0)
           (-90.0 90.0)
  end
  begin
     id 26 
     name rradius
     direction -1 -4.48969e-011 3.43203e-027   
     length 3.23459   
     axis 180 30 90   XYZ
    dof rx
    limits (-10.0 170.0)
  end
  begin
     id 27 
     name rwrist
     direction -1 -4.48969e-011 9.12911e-027   
     length 1.6173   
     axis -6.84618e-015 -90 -90   XYZ
    dof ry
    limits (-180.0 0.0)
  end
  begin
     id 28
     name rhand
     direction -1 -4.49194e-011 1.83006e-026   
     length 0.307416   
     axis -1.16502e-014 -90 -90   XYZ
    dof rx rz
    limits (-90.0 90.0)
           (-45.0 45.0)
  end
  begin
     id 29
     name rfingers
     direction -1 -4.48423e-011 3.63103e-026   
     length 0.247847   
     axis -2.33008e-014 -90 -90   XYZ
    dof rx
    limits (0.0 90.0)
  end
  begin
     id 30
     name rthumb
     direction -0.707107 -6.34802e-011 0.707107   
     length 0.35586   
     axis -90 -45 -5.69224e-014   XYZ
    dof rx rz
    limits (-45.0 45.0)
           (-45.0 45.0)
  end
:hierarchy
  begin
    root lhipjoint rhipjoint lowerback
    lhipjoint lfemur
    lfemur ltibia
    ltibia lfoot
    lfoot ltoes
    rhipjoint rfemur
    rfemur rtibia
    rtibia rfoot
    rfoot rtoes
    lowerback upperback
    upperback thorax
    thorax lowerneck lclavicle rclavicle
    lowerneck upperneck
    upperneck head
    lclavicle lhumerus
    lhumerus lradius
    lradius lwrist
    lwrist lhand lthumb
    lhand lfingers
    rclavicle rhumerus
    rhumerus rradius
    rradius rwrist
    rwrist rhand rthumb
    rhand rfingers
  end

#!OML:ASF \\Waltz\H\Terrain\Patient Classification 1\Animal1\Tuesday\Animal1.ASF
:FULLY-SPECIFIED
:DEGREES
633
root -2.40467 16.2783 0.417492 16.4483 -15.4402 1.31441
lowerback -0.568107 -1.11985 -0.904389
upperback -10.8521 -1.5176 1.45978
thorax -11.191 -0.6036 2.21819
lowerneck -5.17646 0.131975 -5.98583
upperneck 19.0304 -1.41556 12.1287
head 6.70354 -0.178753 4.85155
rclavicle 2.73826e-014 1.35174e-014
rhumerus -9.06307 19.1352 -85.3092
rradius 125.59
rwrist -59.987
rhand -19.0715 19.348
rfingers 7.12502
rthumb 7.23618 -10.5083
lclavicle 2.73826e-014 1.35174e-014
lhumerus -5.15687 -22.0969 85.0383
lradius 116.565
lwrist -34.7978
lhand 12.305 55.9995
lfingers 7.12502
lthumb 37.3091 81.9834
rfemur -36.8614 16.6346 21.0188
rtibia 37.9561
rfoot -11.3843 -16.7721
rtoes -1.22206
lfemur -46.1177 -21.2781 -4.87175
ltibia 64.5645
lfoot 30.6488 -10.9117
ltoes 14.9024
634
root -2.38598 16.272 0.387213 16.6006 -15.0921 1.35451
lowerback -0.473747 -1.25293 -0.640999
upperback -10.5259 -1.67515 1.50988
thorax -10.8698 -0.706859 2.13156
lowerneck -5.92427 0.210717 -5.98393
upperneck 18.6275 -1.15823 11.714
head 6.68544 -0.068159 4.72527
rclavicle -2.8625e-014 2.78299e-015
rhumerus -8.17159 18.8399 -84.7443
rradius 121.713
rwrist -49.7264
rhand -17.8244 23.4838
rfingers 7.12502
rthumb 8.43982 -6.32756
lclavicle -2.8625e-014 2.78299e-015
lhumerus -5.46068 -22.8439 85.0068
lradius 115.205
lwrist -54.655
lhand 22.1509 55.5857
lfingers 7.12502
lthumb 46.5333 78.4548
rfemur -37.3222 16.5219 20.8235
rtibia 38.2201
rfoot -11.0927 -16.9705
rtoes -2.98199
lfemur -46.7473 -21.4382 -4.72455
ltibia 64.8418
lfoot 30.6353 -10.8392
ltoes 15.8304
635
root -2.36581 16.258 0.347692 16.894 -14.743 1.22372
lowerback 0.048097 -1.2693 -0.545706
upperback -10.4618 -1.66866 1.74258
thorax -11.1094 -0.694259 2.34317
lowerneck -6.47745 0.206635 -5.88892
upperneck 18.2287 -0.97889 10.9747
head 6.64242 -0.0200615 4.46983
rclavicle -2.65874e-014 4.21423e-014
rhumerus -7.83933 18.8504 -83.7359
rradius 117.649
rwrist -35.2363
rhand -18.9065 25.4922
rfingers 7.12502
rthumb 7.39541 -4.35858
lclavicle -2.65874e-014 4.21423e-014
lhumerus -5.95857 -23.215 85.5456
lradius 114.776
lwrist -71.1586
lhand 34.8155 50.5834
lfingers 7.12502
lthumb 57.9763 66.3261
rfemur -38.0144 16.4362 20.7813
rtibia 38.5781
rfoot -11.1363 -17.0593
rtoes -3.38687
lfemur -47.6101 -21.4376 -4.32516
ltibia 65.2007
lfoot 30.6608 -10.92
ltoes 16.4599
636
root -2.34423 16.247 0.304139 17.2009 -14.4703 1.21739
lowerback 0.243424 -1.23074 -0.278624
upperback -10.1854 -1.60025 1.69542
thorax -10.9206 -0.689701 2.13393
lowerneck -7.13983 0.137882 -5.66613
upperneck 17.59 -0.924321 10.4327
head 6.5548 -0.00911906 4.24576
rclavicle -3.9906e-014 1.66979e-014
rhumerus -7.68869 18.306 -82.9807
rradius 113.457
rwrist -19.0611
rhand -20.0437 25.8317
rfingers 7.12502
rthumb 6.29766 -4.05467
lclavicle -3.9906e-014 1.66979e-014
lhumerus -6.07942 -23.8206 85.8133
lradius 115.047
lwrist -82.119
lhand 47.1819 44.3581
lfingers 7.12502
lthumb 68.0078 45.5652
rfemur -38.8521 16.3578 20.5842
rtibia 39.0602
rfoot -11.3288 -17.0206
rtoes -2.30302
lfemur -48.5021 -21.3957 -4.06675
ltibia 65.5986
lfoot 30.648 -11.5467
ltoes 15.3875
637
root -2.32097 16.229 0.25609 17.4416 -14.1839 1.24794
lowerback 0.443962 -1.26582 0.0496135
upperback -9.80735 -1.62953 1.62914
thorax -10.6188 -0.739545 1.87647
lowerneck -7.85407 0.091774 -5.47534
upperneck 16.8039 -0.830785 9.90602
head 6.42637 0.0183354 4.03452
rclavicle -2.16178e-015 -3.81667e-014
rhumerus -7.49022 17.6661 -82.3847
rradius 109.401
rwrist -4.42671
rhand -20.5822 25.1328
rfingers 7.12502
rthumb 5.77772 -4.76841
lclavicle -2.16178e-015 -3.81667e-014
lhumerus -6.37017 -24.8257 86.313
lradius 115.873
lwrist -88.2787
lhand 57.8021 38.1895
lfingers 7.12502
lthumb 73.9811 13.2818
rfemur -39.6925 16.2673 20.3802
rtibia 39.655
rfoot -11.521 -17.0599
rtoes -1.52655
lfemur -49.3266 -21.3081 -3.88928
ltibia 66.0332
lfoot 30.47 -12.3031
ltoes 13.5318
